<?xml version="1.0" standalone="no"?>
<!DOCTYPE svg PUBLIC "-//W3C//DTD SVG 20010904//EN"
 "http://www.w3.org/TR/2001/REC-SVG-20010904/DTD/svg10.dtd">
<svg version="1.0" xmlns="http://www.w3.org/2000/svg"
 width="522.000000pt" height="522.000000pt" viewBox="0 0 522.000000 522.000000"
 preserveAspectRatio="xMidYMid meet">
<metadata>
Created by potrace 1.11, written by Peter Selinger 2001-2013
</metadata>
<g transform="translate(0.000000,522.000000) scale(0.100000,-0.100000)"
fill="#000000" stroke="none">
<path d="M0 2617 l0 -1312 333 0 c182 -1 334 2 337 6 3 4 5 314 4 688 0 375 1
681 3 681 2 0 899 -660 941 -693 12 -10 59 20 272 170 36 26 196 138 355 250
l290 204 5 -653 5 -653 335 0 335 0 1 283 c1 155 3 285 6 288 3 2 23 -19 45
-48 47 -62 176 -189 250 -247 152 -118 331 -207 542 -266 86 -24 102 -25 350
-25 251 0 263 1 343 26 99 30 303 130 371 180 l49 36 -119 112 c-65 62 -146
140 -181 172 l-63 59 -87 -42 c-119 -58 -213 -81 -338 -81 -390 -1 -715 250
-813 628 -24 93 -26 259 -4 357 31 142 124 295 248 411 128 120 271 202 400
227 60 12 211 15 270 5 93 -16 220 -59 281 -96 l57 -34 121 97 c66 54 130 105
141 114 72 61 121 99 129 99 28 0 -79 83 -190 148 -74 43 -221 106 -286 123
-21 5 -55 13 -75 18 -240 61 -532 39 -772 -56 -206 -81 -467 -261 -606 -417
-32 -37 -61 -66 -64 -66 -3 0 -5 139 -5 310 l2 310 -378 0 -377 0 -334 -330
c-184 -182 -384 -381 -446 -442 l-112 -111 -248 246 c-136 135 -338 334 -448
441 l-200 196 -337 0 -338 0 0 -1313z"/>
</g>
</svg>
